<svg id="Layer_1" data-name="Layer 1" xmlns="http://www.w3.org/2000/svg" viewBox="0 0 68 68"><defs><style>.cls-1{fill:#fff;}</style></defs><path class="cls-1" d="M31.22,11.14c-6.68,3.62-9.66,7.27-9.71,14.46,0,.12,0,.24,0,.36l9.7-8Z"/><path class="cls-1" d="M12.67,37.2,26.85,55.29,35.64,48l-.73-.41c-6.65-3.67-14-7.71-17-14.74Z"/><path class="cls-1" d="M38.43,49.58l-9.72,8.07L32.91,63H49.33C49.45,57.13,45.29,53.59,38.43,49.58Z"/><path class="cls-1" d="M34.22,9.62V18.1L49,36.93,62.82,25.45V5.36H44C40.2,6.94,37,8.31,34.22,9.62Z"/><polygon class="cls-1" points="62.82 29.34 50.84 39.29 62.82 54.58 62.82 29.34"/><path class="cls-1" d="M10.82,34.84l6.11-5.07a19.45,19.45,0,0,1-.42-4.21c.08-10.55,5.2-15.36,14.71-20V5.36h-26V27.65Z"/><polygon class="cls-1" points="29.09 63.01 26.4 59.57 22.25 63.01 29.09 63.01"/><path class="cls-1" d="M48.53,41.21l-6,5C48.88,50.06,54.47,54.9,54.33,63h8.49V59.44Z"/><polygon class="cls-1" points="24.54 57.21 10.36 39.12 5.18 43.42 5.18 63.01 17.55 63.01 24.54 57.21"/><path class="cls-1" d="M32.49,20.76,22,29.43c1.85,6.35,8.39,10,15.29,13.78l2.44,1.36,6.9-5.72Z"/><polygon class="cls-1" points="8.51 36.76 5.18 32.51 5.18 39.52 8.51 36.76"/></svg>