<svg id="Layer_1" data-name="Layer 1" xmlns="http://www.w3.org/2000/svg" viewBox="0 0 250.35 68.98"><defs><style>.cls-1{fill:#27aae1;}</style></defs><path class="cls-1" d="M68.7,46.28l.36-6.45h.6a22.75,22.75,0,0,0,5.11,4.85,11,11,0,0,0,6.31,1.84,8.57,8.57,0,0,0,6-2.05A7.17,7.17,0,0,0,89.34,39a7.48,7.48,0,0,0-.65-3.12,7.6,7.6,0,0,0-2-2.58,18.1,18.1,0,0,0-2.87-2c-1-.59-2.3-1.21-3.77-1.86A22.35,22.35,0,0,1,72.18,24a10.54,10.54,0,0,1-2.94-7.33A9.41,9.41,0,0,1,72.81,9a13.45,13.45,0,0,1,8.78-2.91A15,15,0,0,1,91.67,9.56l.28,6h-.82q-4.22-5-9.75-5a7.73,7.73,0,0,0-5.16,1.69,5.37,5.37,0,0,0-2,4.27,6.32,6.32,0,0,0,2.37,4.85,26.19,26.19,0,0,0,6.92,4A24.62,24.62,0,0,1,92,30.86a10.45,10.45,0,0,1,2.93,7.37A12.26,12.26,0,0,1,91,47.52a13.79,13.79,0,0,1-9.91,3.73A17.05,17.05,0,0,1,68.7,46.28Z"/><path class="cls-1" d="M101.81,50.37V7h2.12l25.49,30.51V7H135V50.37h-2.11L107.42,19.73V50.37Z"/><path class="cls-1" d="M140.38,50.37,159.21,7h1.64l18.83,43.41h-5.57l-3.73-8.81h-20.7L146,50.37Zm11.36-13.5h16.58L160,17.37Z"/><path class="cls-1" d="M185.07,50.37V7h11.05A18.7,18.7,0,0,1,202.64,8a13.41,13.41,0,0,1,4.8,2.91,12.71,12.71,0,0,1,3.87,9.19,12.47,12.47,0,0,1-1,5,12.65,12.65,0,0,1-2.87,4.18,13.41,13.41,0,0,1-4.8,2.91,18.7,18.7,0,0,1-6.52,1.07h-5.45V50.37Zm5.6-21.83h5.51a10.5,10.5,0,0,0,6.91-2.15,7.62,7.62,0,0,0,2.62-6.26,7.69,7.69,0,0,0-2.62-6.29,10.5,10.5,0,0,0-6.91-2.16h-5.51Z"/><path class="cls-1" d="M214,19.73h5.57l9.26,19.68,9.48-19.68h5L221.7,64.39h-5l9.45-19.53Z"/><path class="cls-1" d="M69.24,61.12l.05-.94h.09a3.29,3.29,0,0,0,.74.71,1.65,1.65,0,0,0,.92.26,1.17,1.17,0,0,0,.87-.3,1,1,0,0,0,.33-.79,1.15,1.15,0,0,0-.1-.46,1.21,1.21,0,0,0-.28-.37,3.19,3.19,0,0,0-.42-.3l-.55-.27a3.27,3.27,0,0,1-1.15-.77,1.55,1.55,0,0,1-.42-1.06,1.35,1.35,0,0,1,.52-1.12,1.94,1.94,0,0,1,1.27-.42,2.14,2.14,0,0,1,1.46.5l0,.86H72.5a1.82,1.82,0,0,0-1.42-.72,1.17,1.17,0,0,0-.75.25.78.78,0,0,0-.29.62.89.89,0,0,0,.34.7,4,4,0,0,0,1,.59,3.63,3.63,0,0,1,1.23.79A1.52,1.52,0,0,1,73,60a1.81,1.81,0,0,1-.56,1.35,2,2,0,0,1-1.44.54A2.47,2.47,0,0,1,69.24,61.12Z"/><path class="cls-1" d="M74,63.75V57.27h.72v.66a2.89,2.89,0,0,1,.73-.56,1.93,1.93,0,0,1,.92-.23A2.2,2.2,0,0,1,78,57.8a2.33,2.33,0,0,1,.65,1.69,2.47,2.47,0,0,1-.18.95,2.41,2.41,0,0,1-.48.75,2.19,2.19,0,0,1-1.58.65,2.07,2.07,0,0,1-1-.22,2,2,0,0,1-.71-.55v2.68Zm1.14-5.47a1.73,1.73,0,0,0-.46,1.21,1.68,1.68,0,0,0,.46,1.2,1.6,1.6,0,0,0,2.32,0,1.8,1.8,0,0,0,0-2.4,1.61,1.61,0,0,0-2.32,0Z"/><path class="cls-1" d="M79.61,60.67a2.47,2.47,0,0,1,0-2.36,2.21,2.21,0,0,1,.84-.85,2.27,2.27,0,0,1,1.18-.32,2,2,0,0,1,.9.2,1.94,1.94,0,0,1,.66.48v-.55h.72v4.44h-.72v-.56a2,2,0,0,1-.66.49,2,2,0,0,1-.9.2,2.27,2.27,0,0,1-1.18-.32A2.21,2.21,0,0,1,79.61,60.67Zm.86-2.39a1.88,1.88,0,0,0,0,2.42,1.62,1.62,0,0,0,2.32,0,1.85,1.85,0,0,0,0-2.42,1.62,1.62,0,0,0-2.32,0Z"/><path class="cls-1" d="M84.75,57.92v-.65h.85v-.94l.72-.34v1.28h1.27v.65H86.32v2.72a.51.51,0,0,0,.17.41.66.66,0,0,0,.41.14,1.13,1.13,0,0,0,.66-.26h.08l0,.68a1.9,1.9,0,0,1-.41.18,1.73,1.73,0,0,1-.42.05,1.15,1.15,0,0,1-.85-.32,1.25,1.25,0,0,1-.31-.9v-2.7Z"/><path class="cls-1" d="M88.57,56.27a.47.47,0,0,1-.14-.35.48.48,0,0,1,.14-.36.49.49,0,0,1,.36-.15.49.49,0,0,1,.35.15.49.49,0,0,1,.15.36.51.51,0,0,1-.5.5A.49.49,0,0,1,88.57,56.27Zm0,5.44V57.27h.72v4.44Z"/><path class="cls-1" d="M90.55,60.67a2.47,2.47,0,0,1,0-2.36,2.26,2.26,0,0,1,.83-.85,2.33,2.33,0,0,1,1.19-.32,2,2,0,0,1,.9.2,1.94,1.94,0,0,1,.66.48v-.55h.72v4.44h-.72v-.56a2,2,0,0,1-.66.49,2,2,0,0,1-.9.2,2.33,2.33,0,0,1-1.19-.32A2.26,2.26,0,0,1,90.55,60.67Zm.86-2.39a1.88,1.88,0,0,0,0,2.42,1.62,1.62,0,0,0,2.32,0,1.88,1.88,0,0,0,0-2.42,1.62,1.62,0,0,0-2.32,0Z"/><path class="cls-1" d="M96,61.71V55.23h.72v6.48Z"/><path class="cls-1" d="M100.75,61.71v-6.3h.31l3.7,4.43V55.41h.81v6.3h-.31l-3.69-4.44v4.44Z"/><path class="cls-1" d="M106.54,59.49a2.41,2.41,0,0,1,.18-.93,2.3,2.3,0,0,1,.48-.75,2.16,2.16,0,0,1,.7-.49,2.1,2.1,0,0,1,3,2v.36h-3.64a1.62,1.62,0,0,0,.29.82,1.5,1.5,0,0,0,.58.52,1.65,1.65,0,0,0,.72.17,2.08,2.08,0,0,0,.85-.16,3.15,3.15,0,0,0,.82-.56h.07l0,.79a3,3,0,0,1-.8.43,2.57,2.57,0,0,1-.9.15,2.26,2.26,0,0,1-1.18-.31,2.21,2.21,0,0,1-.84-.85A2.42,2.42,0,0,1,106.54,59.49Zm.76-.41h3a1.48,1.48,0,0,0-.48-1,1.44,1.44,0,0,0-1-.37,1.38,1.38,0,0,0-.93.35A1.57,1.57,0,0,0,107.3,59.08Z"/><path class="cls-1" d="M111.35,57.92v-.65h.85v-.94l.72-.34v1.28h1.27v.65h-1.27v2.72a.51.51,0,0,0,.17.41.66.66,0,0,0,.41.14,1.13,1.13,0,0,0,.66-.26h.08l0,.68a1.9,1.9,0,0,1-.41.18,1.73,1.73,0,0,1-.42.05,1.15,1.15,0,0,1-.85-.32,1.25,1.25,0,0,1-.31-.9v-2.7Z"/><path class="cls-1" d="M114.69,57.27h.76l1.26,3,1.18-3h.21l1.18,3,1.26-3h.76l-1.94,4.44h-.19l-1.18-3-1.17,3h-.19Z"/><path class="cls-1" d="M122.09,61.17a2.39,2.39,0,1,1,1.66.67A2.25,2.25,0,0,1,122.09,61.17Zm.51-2.91a1.69,1.69,0,0,0-.46,1.23,1.65,1.65,0,0,0,.46,1.22,1.62,1.62,0,0,0,2.3,0,1.65,1.65,0,0,0,.46-1.22,1.69,1.69,0,0,0-.46-1.23,1.64,1.64,0,0,0-2.3,0Z"/><path class="cls-1" d="M127,61.71V57.27h.72v.65a1.43,1.43,0,0,1,.56-.58,1.44,1.44,0,0,1,.71-.2,1.12,1.12,0,0,1,.68.21l.05.73h-.09a1,1,0,0,0-.75-.29,1.1,1.1,0,0,0-.41.07,1.24,1.24,0,0,0-.37.24,1,1,0,0,0-.28.43,1.83,1.83,0,0,0-.1.64v2.54Z"/><path class="cls-1" d="M130.54,61.71V55.23h.72v4.08l1.73-2h.77L132,59.35l1.82,2.36H133l-1.77-2.27v2.27Z"/><path class="cls-1" d="M136.59,61.71l2.73-6.3h.24l2.73,6.3h-.81l-.54-1.28h-3l-.54,1.28Zm1.64-2h2.41l-1.2-2.83Z"/><path class="cls-1" d="M143,61.71V57.27h.72v.66a1.85,1.85,0,0,1,.66-.57,1.91,1.91,0,0,1,.88-.22,1.56,1.56,0,0,1,1.13.42,1.52,1.52,0,0,1,.43,1.14v3h-.71V58.85a1,1,0,0,0-.3-.78,1.07,1.07,0,0,0-.78-.28,1.22,1.22,0,0,0-.93.41,1.51,1.51,0,0,0-.38,1v2.47Z"/><path class="cls-1" d="M148,60.67a2.47,2.47,0,0,1,0-2.36,2.26,2.26,0,0,1,.83-.85,2.31,2.31,0,0,1,1.19-.32,2,2,0,0,1,.9.2,1.94,1.94,0,0,1,.66.48v-.55h.71v4.44h-.71v-.56a2,2,0,0,1-.66.49,2,2,0,0,1-.9.2,2.31,2.31,0,0,1-1.19-.32A2.26,2.26,0,0,1,148,60.67Zm.86-2.39a1.88,1.88,0,0,0,0,2.42,1.62,1.62,0,0,0,2.32,0,1.88,1.88,0,0,0,0-2.42,1.62,1.62,0,0,0-2.32,0Z"/><path class="cls-1" d="M153.46,61.71V55.23h.72v6.48Z"/><path class="cls-1" d="M154.77,57.27h.81l1.35,2.85,1.37-2.85H159l-3.13,6.48h-.72l1.37-2.84Z"/><path class="cls-1" d="M159.36,61.39l.17-.68h.06a2,2,0,0,0,1.27.48,1.08,1.08,0,0,0,.66-.18.61.61,0,0,0,0-1,2.82,2.82,0,0,0-.79-.36,2.55,2.55,0,0,1-.47-.2,2.94,2.94,0,0,1-.39-.26,1.08,1.08,0,0,1-.28-.38,1.13,1.13,0,0,1-.1-.49,1.05,1.05,0,0,1,.42-.84,1.52,1.52,0,0,1,1-.36,2.42,2.42,0,0,1,1.23.34l0,.69h-.06a1.94,1.94,0,0,0-1.2-.43,1,1,0,0,0-.57.15.47.47,0,0,0-.23.43.55.55,0,0,0,.25.47,3.59,3.59,0,0,0,.8.37,3.64,3.64,0,0,1,.54.23,1.62,1.62,0,0,1,.41.27.93.93,0,0,1,.26.36,1.16,1.16,0,0,1,.09.47,1.18,1.18,0,0,1-.48,1,1.76,1.76,0,0,1-1.15.39A2.68,2.68,0,0,1,159.36,61.39Z"/><path class="cls-1" d="M163.42,56.27a.52.52,0,0,1-.14-.35.52.52,0,0,1,.14-.36.49.49,0,0,1,.36-.15.47.47,0,0,1,.35.15.49.49,0,0,1,.15.36.49.49,0,0,1-.15.35.47.47,0,0,1-.35.15A.49.49,0,0,1,163.42,56.27Zm0,5.44V57.27h.72v4.44Z"/><path class="cls-1" d="M165.12,61.39l.17-.68h.05a2.08,2.08,0,0,0,1.27.48,1.08,1.08,0,0,0,.66-.18.57.57,0,0,0,.24-.48.58.58,0,0,0-.24-.5,3,3,0,0,0-.79-.36,2.55,2.55,0,0,1-.47-.2,2,2,0,0,1-.39-.26,1.08,1.08,0,0,1-.28-.38,1.13,1.13,0,0,1-.1-.49,1.05,1.05,0,0,1,.42-.84,1.51,1.51,0,0,1,1-.36,2.43,2.43,0,0,1,1.24.34l0,.69h-.06a1.9,1.9,0,0,0-1.2-.43,1,1,0,0,0-.57.15.49.49,0,0,0-.23.43.56.56,0,0,0,.26.47,3.39,3.39,0,0,0,.8.37,4.86,4.86,0,0,1,.54.23,1.56,1.56,0,0,1,.4.27,1,1,0,0,1,.27.36,1.16,1.16,0,0,1,.09.47,1.21,1.21,0,0,1-.48,1,1.79,1.79,0,0,1-1.16.39A2.65,2.65,0,0,1,165.12,61.39Z"/><path class="cls-1" d="M172,56.27a.49.49,0,0,1-.15-.35.49.49,0,0,1,.15-.36.45.45,0,0,1,.35-.15.51.51,0,0,1,.51.51.49.49,0,0,1-.15.35.49.49,0,0,1-.36.15A.45.45,0,0,1,172,56.27Zm0,5.44V57.27h.72v4.44Z"/><path class="cls-1" d="M173.93,61.71V57.27h.72v.66a1.85,1.85,0,0,1,.66-.57,1.87,1.87,0,0,1,.87-.22,1.57,1.57,0,0,1,1.14.42,1.52,1.52,0,0,1,.43,1.14v3H177V58.85a1.06,1.06,0,0,0-.29-.78,1.08,1.08,0,0,0-.78-.28,1.22,1.22,0,0,0-.93.41,1.47,1.47,0,0,0-.38,1v2.47Z"/><path class="cls-1" d="M181.74,61.71v-6.3h1.6a2.63,2.63,0,0,1,.95.16A1.83,1.83,0,0,1,185,56a2,2,0,0,1,.42.61,1.83,1.83,0,0,1,0,1.45,2,2,0,0,1-.42.6,1.83,1.83,0,0,1-.69.42,2.63,2.63,0,0,1-.95.16h-.79v2.48Zm.81-3.17h.8a1.51,1.51,0,0,0,1-.31,1.28,1.28,0,0,0,0-1.82,1.51,1.51,0,0,0-1-.31h-.8Z"/><path class="cls-1" d="M185.93,57.27h.81l1.34,2.85,1.38-2.85h.73l-3.14,6.48h-.72l1.37-2.84Z"/><path class="cls-1" d="M190.9,57.92v-.65h.85v-.94l.72-.34v1.28h1.27v.65h-1.27v2.72a.48.48,0,0,0,.18.41.63.63,0,0,0,.4.14,1.16,1.16,0,0,0,.67-.26h.08l-.06.68a1.9,1.9,0,0,1-.41.18,1.73,1.73,0,0,1-.42.05,1.14,1.14,0,0,1-.84-.32,1.25,1.25,0,0,1-.32-.9v-2.7Z"/><path class="cls-1" d="M194.68,61.71V55.23h.72V58a1.78,1.78,0,0,1,.68-.58,1.93,1.93,0,0,1,.89-.23,1.6,1.6,0,0,1,1.16.42,1.48,1.48,0,0,1,.44,1.14v3h-.72V58.85a1,1,0,0,0-.31-.78,1.11,1.11,0,0,0-.79-.28,1.27,1.27,0,0,0-1,.42,1.44,1.44,0,0,0-.39,1v2.47Z"/><path class="cls-1" d="M200.11,61.17a2.36,2.36,0,0,1,3.32-3.36,2.35,2.35,0,0,1-1.66,4A2.23,2.23,0,0,1,200.11,61.17Zm.5-2.91a1.73,1.73,0,0,0-.45,1.23,1.69,1.69,0,0,0,.45,1.22,1.54,1.54,0,0,0,1.16.48,1.52,1.52,0,0,0,1.15-.48,1.65,1.65,0,0,0,.46-1.22,1.69,1.69,0,0,0-.46-1.23,1.55,1.55,0,0,0-1.15-.47A1.57,1.57,0,0,0,200.61,58.26Z"/><path class="cls-1" d="M205,61.71V57.27h.72v.66a2,2,0,0,1,.66-.57,1.94,1.94,0,0,1,.88-.22,1.55,1.55,0,0,1,1.13.42,1.53,1.53,0,0,1,.44,1.14v3h-.72V58.85a1.06,1.06,0,0,0-.29-.78,1.08,1.08,0,0,0-.78-.28,1.26,1.26,0,0,0-.94.41,1.51,1.51,0,0,0-.38,1v2.47Z"/><path class="cls-1" d="M30.89,11.63c-6.68,3.62-9.66,7.27-9.71,14.46,0,.13,0,.24,0,.36l9.7-8Z"/><path class="cls-1" d="M12.34,37.69,26.52,55.78l8.79-7.29-.73-.41c-6.65-3.67-14-7.71-17-14.74Z"/><path class="cls-1" d="M38.1,50.07l-9.73,8.07,4.2,5.36H49C49.12,57.62,45,54.08,38.1,50.07Z"/><path class="cls-1" d="M33.89,10.11v8.48L48.65,37.42,62.49,25.94V5.86H43.61C39.86,7.44,36.63,8.8,33.89,10.11Z"/><polygon class="cls-1" points="62.49 29.84 50.5 39.78 62.49 55.07 62.49 29.84"/><path class="cls-1" d="M10.49,35.33l6.11-5.07a18.22,18.22,0,0,1-.42-4.21c.08-10.55,5.2-15.36,14.71-20V5.86h-26V28.14Z"/><polygon class="cls-1" points="28.76 63.5 26.06 60.06 21.91 63.5 28.76 63.5"/><path class="cls-1" d="M48.19,41.7l-6,5c6.36,3.87,12,8.71,11.81,16.82h8.49V59.93Z"/><polygon class="cls-1" points="24.21 57.7 10.03 39.61 4.84 43.91 4.84 63.5 17.22 63.5 24.21 57.7"/><path class="cls-1" d="M32.16,21.25,21.71,29.92c1.84,6.35,8.39,10,15.28,13.79l2.45,1.35,6.9-5.72Z"/><polygon class="cls-1" points="8.18 37.25 4.84 33 4.84 40.01 8.18 37.25"/></svg>